<?xml version="1.0" encoding="utf-8"?>
<!-- Generator: Adobe Illustrator 20.0.0, SVG Export Plug-In . SVG Version: 6.00 Build 0)  -->
<svg version="1.1" id="Layer_1" xmlns="http://www.w3.org/2000/svg" xmlns:xlink="http://www.w3.org/1999/xlink" x="0px" y="0px"
	 viewBox="0 0 1792 1792" style="enable-background:new 0 0 1792 1792;" xml:space="preserve">
<style type="text/css">
	.st0{stroke:#000000;stroke-width:83;stroke-miterlimit:10;}
	.st1{fill:#FFFFFF;}
</style>
<circle class="st0" cx="896" cy="838.4" r="431.9"/>
<path class="st1" d="M1054,959.9L905,1108.6c-2.5,2.5-5.6,3.8-9,3.8s-6.5-1.3-9-3.8L738,959.9c-2.5-2.5-3.8-5.6-3.8-9.1
	s1.3-6.6,3.8-9.1l33.3-33.1c2.5-2.5,5.6-3.8,9-3.8c3.5,0,6.5,1.3,9,3.8L896,1015l106.6-106.6c2.5-2.5,5.6-3.8,9-3.8
	c3.5,0,6.5,1.3,9,3.8l33.3,33.1c2.5,2.5,3.8,5.6,3.8,9.1S1056.5,957.3,1054,959.9z"/>
<path class="st1" d="M738,705.5L887,556.7c2.5-2.5,5.6-3.8,9-3.8s6.5,1.3,9,3.8L1054,705.5c2.5,2.5,3.8,5.6,3.8,9.1
	c0,3.5-1.3,6.6-3.8,9.1l-33.3,33.1c-2.5,2.5-5.6,3.8-9,3.8c-3.5,0-6.5-1.3-9-3.8L896,650.3L789.4,756.8c-2.5,2.5-5.6,3.8-9,3.8
	c-3.5,0-6.5-1.3-9-3.8L738,723.7c-2.5-2.5-3.8-5.6-3.8-9.1C734.2,711,735.5,708,738,705.5z"/>
</svg>
